<?xml version="1.0" encoding="UTF-8"?>
<svg id="BACKGROUND_2" data-name="BACKGROUND 2" xmlns="http://www.w3.org/2000/svg" viewBox="0 0 429.04 82.07">
  <path d="M427.84,7.15c-.18.82,1.29,3.3,1.19,5.64-.08,1.98-1.83,11.53-2.5,13.27-.57,1.49-9.2,13.06-10.28,13.62-3.43,1.75-7.86.02-10.01.57-1.82.46-.98,5.53-1.94,7.35,4.24.34,16.24-2.1,17.23,4.16.16,1.03-2.27,13.86-2.77,15.13-.14.35-3.22,3.46-3.69,4.19-4.44,7-3.91,10.66-13.39,10.96-7.29.23-15.69-.68-23.26-.74-2.2-.02-3.76.02-5.91,0-6.24-.07-29.06,1.04-32.92-1.6-2.28-1.56-1.39-6.01-1.08-8.44.56-4.39,6.71-30.41,5.88-31.89-.73.6-1.4,0-1.86,0-2.45,0-16.93-.57-17.59,0-.26.22-.96,5.71-1.5,6.72,5.79,1.31,17.19-2.48,17.28,6.36.03,2.44-1.98,12.1-2.9,14.37-1.24,3.06-8.75,12.63-11.77,13.73-8.43.15-16.99.04-25.48-.03-3.46-.03-6.4,0-9.69,0-4.2,0-13.1.76-16.3-1.51-.79-.56-1.04-1.88-1.7-2.26-.37-.21-.73,1.74-1.43,2.3-3.74,2.96-27.46-.55-33.04.73-4.23-.29-4.48-5.23-4-8.56l6.66-32.6c-3.87-.75-11.3,1.24-13.81-2.28-3.08-4.32,8.12-19.94,6.66-21.93-.99-1.34,1.98.48,1.98-4.87,0-.63,4.5-2.96,4.93-4.87M250.28,63.38h12.73l7.59-41.02,2.89-.11-.08,3.28-7.41,37.84,12.67-.05c.18-1.93.92-9.2,2.27-10.08,1.54-1.01,5.12.79,6.6-.49,1.68-1.45,1.45-9.4,2.42-11.8h-6.74c-.66-.68,2.35-18.01,3.07-18.62.46-.39,11.93-1.12,10.37,2.43l-7.51,38.14c.29,1.43,12.08,1.21,12.43.55l10.09-53.15-67.38-.74c1.4,2.32-2.3,10.75-1.49,11.95l14.97.76-7.49,41.13ZM337.12,52.16h-16.85c-.19,0-1.29-1-.84-1.54l4.96-27.61,18.63-.09,2.31-11.52c-7.4-.06-15.38-1.24-22.72-.76-4.15.27-7.19.93-8.67,5.3-2.9,8.6-6.01,27.34-7.34,36.79-.47,3.35-1.82,8.18,1.35,10.24,3.34,1.21,25.5,2.14,27.15,1.2,1.08-.62,1.77-10.08,2-12ZM346.11,22.99h14.6c1.58,0,.35,5.59.15,6.89-1.68,11.08-4.55,22.13-6.48,33.18-.44,1.51,1.16,1.16,2.13,1.31,2.21.33,8.94.78,10.16-1.03l7.12-39.09c.29-.83,3.38-1.56,3.76-.1l-7.48,40.72h11.6l10.11-53.84h-43.42s-2.25,11.97-2.25,11.97ZM425.47,11.78h-25.83c-3,0-5.25,5.94-5.87,8.35-3.14,12.31-3.92,26.1-7.19,38.49-.58,3.59,1.26,5.86,4.79,6.29,7.63.93,16.66-1.22,24.35.72.48-.34,2.15-10.11,2.26-11.61.09-1.33-.86-1.11-1.87-1.11h-14.97c-.27,0-1.25-1.09-.98-1.69,2.51-4.98,2.93-23.39,5.46-26.74,1.32-1.75,15.28-.17,18.32-.77l1.53-11.93ZM0,76.57c0-1.95,2.65-12.55,3.5-14.55,1.34-3.16,7.17-8.42,7.65-10.42.14-.58-3.05-5.35-2.97-8.62.07-2.83,3.65-16.87,4.8-19.87C14.76,18.48,27.48,3.27,31.99,1.92,39.24-.23,65.38.62,74.29.65c5.49.02,28.79-.33,31.83,1.06,1.07.49,2.09,2.08,2.77,2.2.55.1,6.95-2.95,10.53-3.22,23.61-1.86,48.69.57,72.26.84,5.24.07,12.41-1.37,18.04-.84,5.16.48,6.12,2.36,6.18,7.41l18.26-.61c2.83.11,5.24,2.82,5.14,5.61s-3.56,16.8-4.74,19.79c-.82,2.12-4.4,5.88-4.43,6.78-.03.76,1.1,1.78,1.2,2.64.46,3.99-3.23,19.29-4.8,23.55-.93,2.52-3.44,4.97-3.71,6.12-.2.9,1.41,3.62,1.3,6.18M67.33,20.41h22.57c.56,0,.94.99.92,1.69-.07,1.83-4.52,17.86-5.44,18.43-.5.31-8.78.19-9-.9-.49-2.37,3.6-12.75,4.08-15.94h-13.96l-9.82,40.54c.56.9.87,1,1.85,1.07,2.98.26,7.77-.88,11.06-.38,1.7-.7,2.37-9.42,3.51-11.72,9.65-.5,20.96,4.25,25.18-7.19,2.39-6.48,6.21-21.95,7.25-28.84.61-4.07,1.48-8.33-3.39-9.89l-31-.03-3.83,13.16h0ZM96.88,64.69h13.96c.21-2.47,1.27-9.08,2.85-10.68,1.92-1.95,6.92.19,7.92-1.27,1.44-2.12,1.87-9.77,3.19-12.63-1.59-.23-7.73.81-8.07-1.21-.14-.87,3.62-15.62,4.18-17.04,1.3-3.35,9.05-1.77,12.14-.98l-10.7,43.81h13.96l13.53-58.22c-7.97,2.03-29.21-1.85-35.45,1.47-2.43,1.29-4.16,3.82-5.13,6.37l-12.36,50.38h-.01ZM178.14,64.69l-5.62-15.2c3.61-2.86,7.83-1.22,10.36-5.91,4.24-7.88,4.85-23.17,8.18-31.94-.57-4.63-4.57-4.96-8.35-5.21-9.48-.64-19.67,1.62-29.18.02l-13.96,58.22h13.96l10.05-42.84c.81-3.39,12.02-3.32,12.07-.27.01.83-2.98,12.12-3.44,12.59-1.81,1.85-8.07-.24-8.87,1.56-1.22,10.06-7.61,19.64-.38,28.97h15.19ZM182.25,64.69h13.13l2.47-11.48h11.49l-1.64,11.48c2.14-.72,12.02.54,13.03-.11.79-.5,4.23-16.42,4.28-18.34.04-1.79-1.07-6.15-2.94-6.15h-20.11c.21-1-.62-2.66.53-3.32,2.26-1.27,14.91.49,18.54-.2,10.25-1.96,9.74-14.62,12.13-22.72h-11.91c-.16,0-.68-.91-1.26-.49-2.11,2.13-.96,8.63-3.27,9.98-.43.25-9.44.24-9.86-.01-2.51-1.53,3.15-13.66,2.48-16.84l-13.08.03-14.01,58.18h.01ZM66.51,7.3h-31.6c-.64,0-4.97,3.26-5.53,4.31-.8,1.5-5.33,20.22-5.16,21.52.81,6.81,16.93,2.76,21.79,3.68-.43,2.99-1.91,14.41-4.52,15.19-3.32,1-21.07-1.02-22.43.54l-2.59,12.12c.94.24,1.86.53,2.85.65,4.71.59,20.31.31,25.14-.33,6.56-.86,7.91-1.12,10.17-7.66,3.08-8.9,4.08-19.32,6.92-28.39.53-2.88-2.86-5.24-5.28-5.24h-16.01c-.16,0-.16-3.28,0-3.28h23.8l2.47-13.11h-.02Z"/>
</svg>